<svg xmlns="http://www.w3.org/2000/svg" xmlns:xlink="http://www.w3.org/1999/xlink" width="500" zoomAndPan="magnify" viewBox="0 0 375 374.999991" height="500" preserveAspectRatio="xMidYMid meet" version="1.0"><defs><clipPath id="8a3b55295b"><path d="M 119 203 L 193 203 L 193 280.46875 L 119 280.46875 Z M 119 203 " clip-rule="nonzero"/></clipPath><clipPath id="0b78dad03c"><path d="M 193 199 L 267 199 L 267 280.46875 L 193 280.46875 Z M 193 199 " clip-rule="nonzero"/></clipPath><clipPath id="d97b565bcf"><path d="M 171 94.46875 L 215 94.46875 L 215 137 L 171 137 Z M 171 94.46875 " clip-rule="nonzero"/></clipPath></defs><path fill="#e4b7f1" d="M 154.933594 182.960938 C 153.738281 180.851562 152.808594 178.703125 152.199219 176.554688 L 134.277344 173.976562 L 107.203125 134.183594 C 103.613281 128.910156 96.417969 127.535156 91.132812 131.121094 C 85.847656 134.703125 84.472656 141.886719 88.0625 147.164062 L 117.480469 190.394531 L 133.925781 191.988281 Z M 154.933594 182.960938 " fill-opacity="1" fill-rule="nonzero"/><g clip-path="url(#8a3b55295b)"><path fill="#e4b7f1" d="M 185.355469 206.488281 C 182.964844 205.800781 180.539062 204.851562 178.140625 203.699219 C 177.625 203.8125 177.128906 203.917969 176.652344 204.007812 L 141.675781 219.039062 C 139.921875 219.792969 138.0625 220.175781 136.152344 220.175781 C 136.050781 220.175781 135.953125 220.160156 135.851562 220.160156 L 120.183594 265.164062 C 118.085938 271.1875 121.277344 277.769531 127.3125 279.863281 C 128.570312 280.296875 129.851562 280.503906 131.113281 280.503906 C 135.898438 280.503906 140.378906 277.515625 142.039062 272.746094 L 158.085938 226.65625 L 187.496094 214.914062 C 189.46875 214.125 191.09375 212.851562 192.3125 211.289062 C 189.371094 210.832031 186.8125 209.035156 185.355469 206.488281 Z M 185.355469 206.488281 " fill-opacity="1" fill-rule="nonzero"/></g><g clip-path="url(#0b78dad03c)"><path fill="#e4b7f1" d="M 238.96875 226.507812 L 221.550781 199.890625 C 220.867188 199.875 220.183594 199.859375 219.492188 199.839844 C 213.355469 204.890625 205.550781 209.210938 195.753906 211.210938 C 195.109375 211.34375 194.453125 211.410156 193.796875 211.410156 C 193.699219 211.410156 193.605469 211.402344 193.507812 211.398438 C 194.714844 212.910156 196.316406 214.144531 198.242188 214.914062 L 227.652344 226.65625 L 243.699219 272.746094 C 245.359375 277.515625 249.839844 280.503906 254.628906 280.503906 C 255.886719 280.503906 257.167969 280.296875 258.425781 279.863281 C 264.460938 277.769531 267.652344 271.1875 265.554688 265.164062 L 254.335938 232.941406 L 244.816406 230.632812 C 242.402344 230.050781 240.328125 228.585938 238.96875 226.507812 Z M 238.96875 226.507812 " fill-opacity="1" fill-rule="nonzero"/></g><path fill="#e4b7f1" d="M 295.421875 176.382812 C 295.628906 177.042969 295.808594 177.714844 295.949219 178.394531 C 296.09375 179.074219 296.203125 179.757812 296.277344 180.449219 C 296.355469 181.140625 296.398438 181.832031 296.40625 182.527344 C 296.414062 183.222656 296.386719 183.917969 296.324219 184.609375 C 296.265625 185.300781 296.171875 185.988281 296.042969 186.671875 C 295.914062 187.351562 295.753906 188.027344 295.558594 188.695312 C 295.363281 189.363281 295.136719 190.019531 294.878906 190.664062 C 294.617188 191.308594 294.328125 191.9375 294.007812 192.554688 C 293.6875 193.171875 293.335938 193.769531 292.953125 194.351562 C 292.574219 194.933594 292.167969 195.496094 291.730469 196.035156 C 291.296875 196.578125 290.835938 197.097656 290.347656 197.59375 C 289.863281 198.089844 289.351562 198.5625 288.820312 199.007812 C 288.285156 199.457031 287.730469 199.875 287.15625 200.269531 C 286.582031 200.660156 285.992188 201.023438 285.382812 201.359375 C 284.769531 201.691406 284.144531 201.996094 283.507812 202.269531 C 282.867188 202.542969 282.214844 202.78125 281.550781 202.992188 C 280.886719 203.199219 280.214844 203.378906 279.535156 203.519531 C 278.851562 203.664062 278.167969 203.773438 277.472656 203.847656 C 276.78125 203.925781 276.089844 203.964844 275.394531 203.972656 C 274.695312 203.980469 274.003906 203.953125 273.308594 203.894531 C 272.617188 203.835938 271.925781 203.738281 271.242188 203.613281 C 270.558594 203.484375 269.882812 203.324219 269.214844 203.128906 C 268.546875 202.933594 267.890625 202.707031 267.242188 202.449219 C 266.597656 202.191406 265.964844 201.902344 265.347656 201.578125 C 264.730469 201.257812 264.132812 200.910156 263.546875 200.53125 C 262.964844 200.148438 262.402344 199.742188 261.859375 199.308594 C 261.316406 198.875 260.796875 198.414062 260.300781 197.925781 C 259.800781 197.441406 259.328125 196.933594 258.882812 196.402344 C 258.433594 195.867188 258.015625 195.316406 257.621094 194.742188 C 257.226562 194.167969 256.863281 193.578125 256.53125 192.96875 C 256.195312 192.359375 255.890625 191.738281 255.617188 191.097656 C 255.34375 190.457031 255.101562 189.808594 254.894531 189.144531 C 254.683594 188.484375 254.507812 187.8125 254.363281 187.132812 C 254.21875 186.453125 254.109375 185.765625 254.035156 185.078125 C 253.960938 184.386719 253.917969 183.695312 253.910156 183 C 253.902344 182.304688 253.929688 181.609375 253.988281 180.917969 C 254.050781 180.226562 254.144531 179.539062 254.273438 178.855469 C 254.398438 178.171875 254.5625 177.5 254.757812 176.832031 C 254.949219 176.164062 255.175781 175.507812 255.4375 174.863281 C 255.695312 174.21875 255.984375 173.589844 256.308594 172.972656 C 256.628906 172.355469 256.980469 171.757812 257.359375 171.175781 C 257.738281 170.59375 258.148438 170.03125 258.582031 169.488281 C 259.019531 168.949219 259.480469 168.429688 259.964844 167.933594 C 260.453125 167.433594 260.960938 166.964844 261.496094 166.515625 C 262.027344 166.070312 262.582031 165.652344 263.15625 165.257812 C 263.730469 164.867188 264.324219 164.503906 264.933594 164.167969 C 265.542969 163.835938 266.167969 163.53125 266.808594 163.257812 C 267.449219 162.984375 268.101562 162.742188 268.761719 162.535156 C 269.425781 162.324219 270.097656 162.148438 270.78125 162.007812 C 271.460938 161.863281 272.148438 161.753906 272.839844 161.679688 C 273.53125 161.601562 274.226562 161.5625 274.921875 161.554688 C 275.617188 161.546875 276.3125 161.570312 277.003906 161.632812 C 277.699219 161.691406 278.386719 161.785156 279.070312 161.914062 C 279.753906 162.042969 280.429688 162.203125 281.097656 162.398438 C 281.765625 162.59375 282.425781 162.820312 283.070312 163.078125 C 283.714844 163.335938 284.347656 163.625 284.964844 163.945312 C 285.582031 164.265625 286.183594 164.617188 286.765625 164.996094 C 287.347656 165.375 287.910156 165.785156 288.453125 166.21875 C 288.996094 166.652344 289.515625 167.113281 290.015625 167.597656 C 290.511719 168.085938 290.984375 168.59375 291.433594 169.125 C 291.878906 169.65625 292.300781 170.210938 292.691406 170.785156 C 293.085938 171.355469 293.449219 171.949219 293.785156 172.558594 C 294.121094 173.167969 294.421875 173.789062 294.695312 174.429688 C 294.96875 175.066406 295.210938 175.71875 295.421875 176.382812 Z M 295.421875 176.382812 " fill-opacity="1" fill-rule="nonzero"/><path fill="#e4b7f1" d="M 156.957031 182.09375 L 160.082031 180.75 C 160.988281 176.457031 163.390625 171.957031 168.867188 168.457031 C 169.441406 162.175781 170.269531 157.457031 171.148438 153.933594 L 173.355469 154.066406 C 172.546875 157.199219 171.761719 161.453125 171.183594 167.128906 C 172.15625 166.636719 173.203125 166.167969 174.335938 165.730469 L 174.414062 165.703125 L 174.492188 165.679688 C 187.886719 161.667969 197.585938 160.035156 207.96875 160.035156 C 211.167969 160.035156 214.519531 160.203125 218.144531 160.535156 C 217.390625 157.832031 216.398438 155.042969 215.144531 152.597656 L 217.242188 151.910156 C 220.035156 157.476562 221.460938 164.359375 221.972656 168.425781 C 219.804688 173.523438 211.289062 190.429688 192.289062 194.3125 C 188.203125 195.144531 185.566406 199.132812 186.402344 203.210938 C 187.136719 206.78125 190.28125 209.242188 193.796875 209.242188 C 194.300781 209.242188 194.808594 209.191406 195.320312 209.089844 C 225.867188 202.847656 236.386719 173.179688 236.820312 171.921875 C 237.152344 170.953125 237.285156 169.929688 237.207031 168.910156 C 237.066406 167.054688 236.121094 156.914062 231.734375 147.167969 C 228.441406 139.855469 223.214844 132.765625 214.914062 129.585938 C 214.078125 129.265625 213.21875 129.109375 212.371094 129.09375 C 212.269531 129.074219 212.167969 129.058594 212.066406 129.046875 C 207.828125 135.09375 200.804688 139.058594 192.867188 139.058594 C 184.921875 139.058594 177.894531 135.085938 173.65625 129.027344 C 171.78125 129.175781 169.222656 129.824219 166.527344 131.875 C 161.621094 135.609375 158.097656 142.578125 155.867188 153 C 154.832031 157.851562 154.074219 163.441406 153.589844 169.808594 C 153.289062 173.804688 154.589844 178.015625 156.957031 182.09375 Z M 156.957031 182.09375 " fill-opacity="1" fill-rule="nonzero"/><path fill="#e4b7f1" d="M 184.097656 202.132812 C 183.210938 202.335938 182.328125 202.550781 181.460938 202.789062 C 182.421875 203.191406 183.378906 203.558594 184.335938 203.886719 C 184.316406 203.804688 184.292969 203.726562 184.273438 203.648438 C 184.171875 203.140625 184.121094 202.636719 184.097656 202.132812 Z M 184.097656 202.132812 " fill-opacity="1" fill-rule="nonzero"/><path fill="#e4b7f1" d="M 176.015625 201.921875 C 176.824219 201.769531 177.679688 201.589844 178.605469 201.371094 C 180.4375 200.785156 182.324219 200.296875 184.246094 199.871094 C 184.484375 198.628906 184.96875 197.4375 185.6875 196.351562 C 187.117188 194.1875 189.308594 192.707031 191.855469 192.1875 C 209.183594 188.644531 217.347656 173.511719 219.742188 168.117188 C 219.523438 166.566406 219.1875 164.726562 218.722656 162.773438 C 203.660156 161.296875 192.132812 162.660156 175.117188 167.753906 C 166.078125 171.226562 162.800781 176.636719 162.007812 182.28125 L 134.269531 194.199219 L 84.21875 189.347656 C 77.71875 188.71875 71.957031 193.460938 71.328125 199.9375 C 70.699219 206.414062 75.449219 212.175781 81.9375 212.804688 L 135.011719 217.949219 C 135.390625 217.988281 135.769531 218.007812 136.152344 218.007812 C 137.75 218.007812 139.339844 217.679688 140.820312 217.046875 Z M 176.015625 201.921875 " fill-opacity="1" fill-rule="nonzero"/><path fill="#e4b7f1" d="M 234.207031 183.71875 L 241.40625 194.722656 C 245.066406 192.457031 247.628906 189.136719 247.90625 185.160156 C 248.289062 179.613281 245.542969 172.980469 239.355469 168.519531 C 239.363281 168.59375 239.371094 168.6875 239.375 168.746094 C 239.472656 170.066406 239.304688 171.371094 238.875 172.625 C 238.710938 173.097656 237.164062 177.449219 233.761719 183.101562 C 233.914062 183.300781 234.066406 183.507812 234.207031 183.71875 Z M 234.207031 183.71875 " fill-opacity="1" fill-rule="nonzero"/><path fill="#e4b7f1" d="M 232.515625 185.101562 C 230.011719 188.957031 226.6875 193.242188 222.421875 197.253906 L 240.785156 225.320312 C 241.835938 226.929688 243.460938 228.074219 245.328125 228.527344 L 294.480469 240.4375 C 296.011719 240.808594 297.550781 240.6875 298.921875 240.171875 C 301.179688 239.320312 302.992188 237.410156 303.605469 234.890625 C 304.589844 230.84375 302.101562 226.765625 298.046875 225.78125 L 251.800781 214.574219 Z M 232.515625 185.101562 " fill-opacity="1" fill-rule="nonzero"/><g clip-path="url(#d97b565bcf)"><path fill="#e4b7f1" d="M 214.117188 115.679688 C 214.117188 116.375 214.082031 117.066406 214.015625 117.757812 C 213.945312 118.449219 213.84375 119.136719 213.707031 119.816406 C 213.574219 120.496094 213.402344 121.171875 213.203125 121.835938 C 213 122.5 212.765625 123.152344 212.5 123.796875 C 212.234375 124.4375 211.9375 125.066406 211.609375 125.675781 C 211.28125 126.289062 210.921875 126.886719 210.535156 127.464844 C 210.148438 128.039062 209.734375 128.597656 209.292969 129.136719 C 208.851562 129.671875 208.386719 130.1875 207.894531 130.675781 C 207.402344 131.167969 206.886719 131.632812 206.347656 132.074219 C 205.808594 132.515625 205.25 132.929688 204.671875 133.316406 C 204.09375 133.699219 203.5 134.058594 202.882812 134.386719 C 202.269531 134.710938 201.644531 135.007812 201 135.273438 C 200.355469 135.542969 199.703125 135.773438 199.035156 135.976562 C 198.371094 136.179688 197.695312 136.347656 197.011719 136.480469 C 196.332031 136.617188 195.644531 136.71875 194.949219 136.789062 C 194.257812 136.855469 193.5625 136.890625 192.867188 136.890625 C 192.171875 136.890625 191.476562 136.855469 190.785156 136.789062 C 190.09375 136.71875 189.40625 136.617188 188.722656 136.480469 C 188.039062 136.347656 187.367188 136.179688 186.699219 135.976562 C 186.035156 135.773438 185.378906 135.542969 184.738281 135.273438 C 184.09375 135.007812 183.464844 134.710938 182.851562 134.386719 C 182.238281 134.058594 181.640625 133.699219 181.0625 133.316406 C 180.484375 132.929688 179.925781 132.515625 179.386719 132.074219 C 178.851562 131.632812 178.335938 131.167969 177.84375 130.675781 C 177.351562 130.1875 176.882812 129.671875 176.441406 129.136719 C 176 128.597656 175.585938 128.039062 175.199219 127.464844 C 174.8125 126.886719 174.457031 126.289062 174.128906 125.675781 C 173.800781 125.066406 173.503906 124.4375 173.238281 123.796875 C 172.96875 123.152344 172.734375 122.5 172.535156 121.835938 C 172.332031 121.171875 172.164062 120.496094 172.027344 119.816406 C 171.890625 119.136719 171.789062 118.449219 171.722656 117.757812 C 171.652344 117.066406 171.621094 116.375 171.621094 115.679688 C 171.621094 114.984375 171.652344 114.289062 171.722656 113.597656 C 171.789062 112.90625 171.890625 112.222656 172.027344 111.539062 C 172.164062 110.859375 172.332031 110.1875 172.535156 109.519531 C 172.734375 108.855469 172.96875 108.203125 173.238281 107.5625 C 173.503906 106.917969 173.800781 106.292969 174.128906 105.679688 C 174.457031 105.066406 174.8125 104.472656 175.199219 103.894531 C 175.585938 103.316406 176 102.757812 176.441406 102.222656 C 176.882812 101.683594 177.351562 101.171875 177.84375 100.679688 C 178.335938 100.1875 178.851562 99.722656 179.386719 99.28125 C 179.925781 98.839844 180.484375 98.429688 181.0625 98.042969 C 181.640625 97.65625 182.238281 97.300781 182.851562 96.972656 C 183.464844 96.644531 184.09375 96.347656 184.738281 96.082031 C 185.378906 95.816406 186.035156 95.582031 186.699219 95.378906 C 187.367188 95.179688 188.039062 95.011719 188.722656 94.875 C 189.40625 94.738281 190.09375 94.636719 190.785156 94.570312 C 191.476562 94.5 192.171875 94.46875 192.867188 94.46875 C 193.5625 94.46875 194.257812 94.5 194.949219 94.570312 C 195.644531 94.636719 196.332031 94.738281 197.011719 94.875 C 197.695312 95.011719 198.371094 95.179688 199.035156 95.378906 C 199.703125 95.582031 200.355469 95.816406 201 96.082031 C 201.644531 96.347656 202.269531 96.644531 202.882812 96.972656 C 203.5 97.300781 204.09375 97.65625 204.671875 98.042969 C 205.25 98.429688 205.808594 98.839844 206.347656 99.28125 C 206.886719 99.722656 207.402344 100.1875 207.894531 100.679688 C 208.386719 101.171875 208.851562 101.683594 209.292969 102.222656 C 209.734375 102.757812 210.148438 103.316406 210.535156 103.894531 C 210.921875 104.472656 211.28125 105.066406 211.609375 105.679688 C 211.9375 106.292969 212.234375 106.917969 212.5 107.5625 C 212.765625 108.203125 213 108.855469 213.203125 109.519531 C 213.402344 110.1875 213.574219 110.859375 213.707031 111.539062 C 213.84375 112.222656 213.945312 112.90625 214.015625 113.597656 C 214.082031 114.289062 214.117188 114.984375 214.117188 115.679688 Z M 214.117188 115.679688 " fill-opacity="1" fill-rule="nonzero"/></g></svg>